{
    "asset" : {
        "generator" : "Khronos glTF Blender I/O v1.4.40",
        "version" : "2.0"
    },
    "scene" : 0,
    "scenes" : [
        {
            "name" : "Scene",
            "nodes" : [
                0,
                1,
                2
            ]
        }
    ],
    "nodes" : [
        {
            "mesh" : 0,
            "name" : "Cube",
            "rotation" : [
                -0.5,
                -0.5,
                0.4999999701976776,
                0.5
            ],
            "translation" : [
                -8.940118789672852,
                -0.1145930290222168,
                -1.1334264278411865
            ]
        },
        {
            "mesh" : 1,
            "name" : "Cube.001",
            "rotation" : [
                -0.5,
                -0.5,
                0.4999999701976776,
                0.5
            ],
            "translation" : [
                -1.9535245895385742,
                -0.1145925521850586,
                -1.1334259510040283
            ]
        },
        {
            "mesh" : 2,
            "name" : "Cube.002",
            "rotation" : [
                -0.5,
                -0.5,
                0.4999999701976776,
                0.5
            ],
            "translation" : [
                6.522923469543457,
                -0.1145925521850586,
                -1.1334259510040283
            ]
        }
    ],
    "materials" : [
        {
            "doubleSided" : true,
            "name" : "Material.004",
            "pbrMetallicRoughness" : {
                "baseColorFactor" : [
                    0.02399379573762417,
                    0.37570223212242126,
                    0.8000000715255737,
                    1
                ],
                "metallicFactor" : 0,
                "roughnessFactor" : 0.5
            }
        },
        {
            "doubleSided" : true,
            "name" : "Material.003",
            "pbrMetallicRoughness" : {
                "baseColorFactor" : [
                    0.8000000715255737,
                    0.47698381543159485,
                    0.14952798187732697,
                    1
                ],
                "metallicFactor" : 0,
                "roughnessFactor" : 0.5
            }
        },
        {
            "doubleSided" : true,
            "name" : "Material.001",
            "pbrMetallicRoughness" : {
                "baseColorFactor" : [
                    0.8000000715255737,
                    0.034291695803403854,
                    0.05086242035031319,
                    1
                ],
                "metallicFactor" : 0,
                "roughnessFactor" : 0.5
            }
        }
    ],
    "meshes" : [
        {
            "name" : "Cube.001",
            "primitives" : [
                {
                    "attributes" : {
                        "POSITION" : 0,
                        "NORMAL" : 1,
                        "TEXCOORD_0" : 2
                    },
                    "indices" : 3,
                    "material" : 0
                }
            ]
        },
        {
            "name" : "Cube.002",
            "primitives" : [
                {
                    "attributes" : {
                        "POSITION" : 4,
                        "NORMAL" : 5,
                        "TEXCOORD_0" : 6
                    },
                    "indices" : 7,
                    "material" : 1
                }
            ]
        },
        {
            "name" : "Cube.003",
            "primitives" : [
                {
                    "attributes" : {
                        "POSITION" : 8,
                        "NORMAL" : 9,
                        "TEXCOORD_0" : 10
                    },
                    "indices" : 11,
                    "material" : 2
                }
            ]
        }
    ],
    "accessors" : [
        {
            "bufferView" : 0,
            "componentType" : 5126,
            "count" : 116,
            "max" : [
                1,
                7.681771278381348,
                1
            ],
            "min" : [
                -1,
                -1,
                -4.284256935119629
            ],
            "type" : "VEC3"
        },
        {
            "bufferView" : 1,
            "componentType" : 5126,
            "count" : 116,
            "type" : "VEC3"
        },
        {
            "bufferView" : 2,
            "componentType" : 5126,
            "count" : 116,
            "type" : "VEC2"
        },
        {
            "bufferView" : 3,
            "componentType" : 5123,
            "count" : 204,
            "type" : "SCALAR"
        },
        {
            "bufferView" : 4,
            "componentType" : 5126,
            "count" : 190,
            "max" : [
                1.1575251817703247,
                7.679697036743164,
                1
            ],
            "min" : [
                -1,
                -1,
                -6.289127349853516
            ],
            "type" : "VEC3"
        },
        {
            "bufferView" : 5,
            "componentType" : 5126,
            "count" : 190,
            "type" : "VEC3"
        },
        {
            "bufferView" : 6,
            "componentType" : 5126,
            "count" : 190,
            "type" : "VEC2"
        },
        {
            "bufferView" : 7,
            "componentType" : 5123,
            "count" : 348,
            "type" : "SCALAR"
        },
        {
            "bufferView" : 8,
            "componentType" : 5126,
            "count" : 122,
            "max" : [
                0.9795917868614197,
                6.7187652587890625,
                1.0743491649627686
            ],
            "min" : [
                -0.6144865155220032,
                -1.2430944442749023,
                -4.060168266296387
            ],
            "type" : "VEC3"
        },
        {
            "bufferView" : 9,
            "componentType" : 5126,
            "count" : 122,
            "type" : "VEC3"
        },
        {
            "bufferView" : 10,
            "componentType" : 5126,
            "count" : 122,
            "type" : "VEC2"
        },
        {
            "bufferView" : 11,
            "componentType" : 5123,
            "count" : 252,
            "type" : "SCALAR"
        }
    ],
    "bufferViews" : [
        {
            "buffer" : 0,
            "byteLength" : 1392,
            "byteOffset" : 0
        },
        {
            "buffer" : 0,
            "byteLength" : 1392,
            "byteOffset" : 1392
        },
        {
            "buffer" : 0,
            "byteLength" : 928,
            "byteOffset" : 2784
        },
        {
            "buffer" : 0,
            "byteLength" : 408,
            "byteOffset" : 3712
        },
        {
            "buffer" : 0,
            "byteLength" : 2280,
            "byteOffset" : 4120
        },
        {
            "buffer" : 0,
            "byteLength" : 2280,
            "byteOffset" : 6400
        },
        {
            "buffer" : 0,
            "byteLength" : 1520,
            "byteOffset" : 8680
        },
        {
            "buffer" : 0,
            "byteLength" : 696,
            "byteOffset" : 10200
        },
        {
            "buffer" : 0,
            "byteLength" : 1464,
            "byteOffset" : 10896
        },
        {
            "buffer" : 0,
            "byteLength" : 1464,
            "byteOffset" : 12360
        },
        {
            "buffer" : 0,
            "byteLength" : 976,
            "byteOffset" : 13824
        },
        {
            "buffer" : 0,
            "byteLength" : 504,
            "byteOffset" : 14800
        }
    ],
    "buffers" : [
        {
            "byteLength" : 15304,
            "uri" : "data:application/octet-stream;base64,"
        }
    ]
}
